<svg id="Layer_1" data-name="Layer 1" xmlns="http://www.w3.org/2000/svg" viewBox="0 0 667 319"><defs><style>.cls-1{fill:#4d4d4d;}.cls-2,.cls-6{fill:#fff;}.cls-3{fill:#f9c80e;}.cls-4{fill:#ea3546;}.cls-5{fill:#369;}.cls-6,.cls-9{font-size:112px;}.cls-6{font-family:AvenirLTStd-Black, Avenir LT Std;font-weight:800;}.cls-7{fill:#43bccd;}.cls-8{fill:#f86624;}.cls-9{stroke:#fff;stroke-miterlimit:10;font-family:AvenirLTStd-Roman, Avenir LT Std;}</style></defs><rect class="cls-1" x="64.07" y="151.79" width="11" height="101.38" transform="translate(-27.36 11.58) rotate(-7.96)"/><path class="cls-2" d="M67.57,152.08l13.9,99.41-9.91,1.39L57.67,153.46l9.9-1.38m.85-1.13-1,.14-9.9,1.38-1,.14.13,1L70.57,253l.14,1,1-.14,9.9-1.39,1-.14-.13-1-13.9-99.41-.14-1Z"/><rect class="cls-1" x="110.07" y="131.79" width="11" height="101.38" transform="translate(-100.42 183.9) rotate(-58.03)"/><path class="cls-2" d="M75.64,151.66l85.15,53.15-5.3,8.48L70.34,160.15l5.3-8.49m-.32-1.38-.53.85-5.3,8.49-.53.84.85.53L155,214.14l.84.53.53-.85,5.3-8.48.53-.85-.85-.53L76.17,150.81l-.85-.53Z"/><rect class="cls-1" x="155.88" y="148.24" width="101.38" height="11" transform="translate(27.86 339.13) rotate(-82.71)"/><path class="cls-2" d="M208,103.32l9.92,1.27-12.73,99.57-9.92-1.27L208,103.32m-.86-1.12-.13,1-12.73,99.57-.13,1,1,.13,9.92,1.27,1,.13.13-1,12.73-99.56.13-1-1-.12-9.92-1.27-1-.13Z"/><rect class="cls-1" x="29.58" y="96.37" width="101.38" height="11" transform="translate(-42.04 144.98) rotate(-71.18)"/><path class="cls-2" d="M91.73,52.75,101.2,56,68.81,151l-9.46-3.23,32.38-95m-.62-1.27-.33.94-32.38,95-.32.94,1,.33,9.46,3.22,1,.32.32-.94,32.38-95,.33-.95-1-.32L92.05,51.8l-.94-.32Z"/><rect class="cls-1" x="77.88" y="117.02" width="101.38" height="11" transform="translate(-41.74 72.15) rotate(-27.14)"/><path class="cls-2" d="M171,95.17l4.56,8.9-89.33,45.8L81.62,141,171,95.17m.43-1.34-.89.45-89.32,45.8-.89.46.45.89,4.56,8.9.46.89.89-.46L176,105l.89-.45-.45-.89-4.56-8.9-.46-.89Z"/><path class="cls-3" d="M76.64,288.81a36.88,36.88,0,0,1-7.76-.84c-19.4-4.2-31.82-23.19-27.67-42.32a35.81,35.81,0,0,1,34.94-27.9,36.94,36.94,0,0,1,7.76.83c19.4,4.21,31.81,23.19,27.67,42.32a35.82,35.82,0,0,1-34.94,27.91Z"/><path class="cls-2" d="M76.15,218.25a36,36,0,0,1,7.66.82c19.16,4.15,31.37,22.83,27.28,41.72a35.14,35.14,0,0,1-34.45,27.52,35.92,35.92,0,0,1-7.66-.83c-19.16-4.15-31.37-22.83-27.28-41.72a35.13,35.13,0,0,1,34.45-27.51m0-1a36.74,36.74,0,0,0-22.63,7.83,35.83,35.83,0,0,0-12.8,20.47c-4.2,19.4,8.38,38.65,28.05,42.91a37.33,37.33,0,0,0,7.87.85,36.7,36.7,0,0,0,22.62-7.84A35.63,35.63,0,0,0,107,233.86a36.58,36.58,0,0,0-23-15.77,37.32,37.32,0,0,0-7.87-.84Z"/><ellipse class="cls-4" cx="217.91" cy="82.17" rx="66.09" ry="65.17"/><path class="cls-2" d="M217.91,17.5c36.22,0,65.59,29,65.59,64.67s-29.37,64.67-65.59,64.67-65.6-29-65.6-64.67,29.37-64.67,65.6-64.67m0-1c-36.72,0-66.6,29.46-66.6,65.67s29.88,65.67,66.6,65.67,66.59-29.46,66.59-65.67S254.63,16.5,217.91,16.5Z"/><ellipse class="cls-5" cx="198" cy="223.5" rx="66.09" ry="65.17"/><path class="cls-2" d="M198,158.83c36.23,0,65.59,28.95,65.59,64.67S234.23,288.17,198,288.17s-65.59-28.95-65.59-64.67,29.36-64.67,65.59-64.67m0-1c-36.72,0-66.59,29.46-66.59,65.67s29.87,65.67,66.59,65.67,66.59-29.46,66.59-65.67S234.72,157.83,198,157.83Z"/><text class="cls-6" transform="translate(169 261.67)">S</text><ellipse class="cls-7" cx="62" cy="150.63" rx="45.5" ry="44.87"/><path class="cls-2" d="M62,106.27c24.85,0,45,19.86,45,44.36S86.85,195,62,195s-45-19.86-45-44.37,20.15-44.36,45-44.36m0-1c-25.36,0-46,20.35-46,45.36S36.64,196,62,196s46-20.35,46-45.37-20.64-45.36-46-45.36Z"/><ellipse class="cls-8" cx="97.5" cy="53" rx="36" ry="35.5"/><path class="cls-2" d="M97.5,18C117.11,18,133,33.67,133,53S117.11,88,97.5,88,62,72.33,62,53,77.89,18,97.5,18m0-1C77.37,17,61,33.15,61,53S77.37,89,97.5,89,134,72.85,134,53,117.63,17,97.5,17Z"/><text class="cls-6" transform="translate(173 123.67)">N</text><text class="cls-9" transform="translate(287.23 123.98)">etwork</text><text class="cls-9" transform="translate(267.39 261.98)">ampler</text></svg>